<svg viewBox="0 0 220 220" xmlns="http://www.w3.org/2000/svg">
  <g fill="#D97745" transform="translate(110 110)">
    <ellipse cx="0" cy="-56" rx="10" ry="36"/>
    <ellipse cx="0" cy="-56" rx="10" ry="36" transform="rotate(30)"/>
    <ellipse cx="0" cy="-56" rx="10" ry="36" transform="rotate(60)"/>
    <ellipse cx="0" cy="-56" rx="10" ry="36" transform="rotate(90)"/>
    <ellipse cx="0" cy="-56" rx="10" ry="36" transform="rotate(120)"/>
    <ellipse cx="0" cy="-56" rx="10" ry="36" transform="rotate(150)"/>
    <ellipse cx="0" cy="-56" rx="10" ry="36" transform="rotate(180)"/>
    <ellipse cx="0" cy="-56" rx="10" ry="36" transform="rotate(210)"/>
    <ellipse cx="0" cy="-56" rx="10" ry="36" transform="rotate(240)"/>
    <ellipse cx="0" cy="-56" rx="10" ry="36" transform="rotate(270)"/>
    <ellipse cx="0" cy="-56" rx="10" ry="36" transform="rotate(300)"/>
    <ellipse cx="0" cy="-56" rx="10" ry="36" transform="rotate(330)"/>
  </g>
</svg>
